{"title":"Lady in Cement(1968)MP-4[DaScubaDude]","uid":12350643,"size":1146441855,"categoryP":"video","categoryS":"movies","magnet":"?xt=urn:btih:1c248b3fa584f5c4d45920bcb7faa3b29eb255fd&amp;dn=Lady+in+Cement%281968%29MP-4%5BDaScubaDude%5D&amp;tr=udp%3A%2F%2Ftracker.openbittorrent.com%3A80&amp;tr=udp%3A%2F%2Fopen.demonii.com%3A1337&amp;tr=udp%3A%2F%2Ftracker.coppersurfer.tk%3A6969&amp;tr=udp%3A%2F%2Fexodus.desync.com%3A6969","seeders":6,"leechers":1,"uploader":"dascuba","files":1,"time":1441415697,"description":"Lady in Cement (1968)\nR  |  93 min  |  Comedy, Crime, Drama  |  20 December 1968 (Finland)\n5.9 Your rating:   -/10   Ratings: 5.9/10 from 1,272 users   \nReviews: 28 user | 12 critic\nTony Rome is a Miami based detective who while diving in the ocean finds the body of a young woman. He is hired by Gronsky to find her killer. Tony has to sift through a stack of suspects, ... See full summary Â»\n\nDirector: Gordon Douglas\nWriters: Marvin H. Albert (novel), Marvin H. Albert (screenplay), 1 more credit Â»\nStars: Frank Sinatra, Raquel Welch, Richard Conte \n\nGeneral\nComplete name                            : C:UsersbillVideosWinXVideosLady in CementLADYINCEMENT_Title1.mp4\nFormat                                   : MPEG-4\nFormat profile                           : Base Media\nCodec ID                                 : isom\nFile size                                : 1.07 GiB\nDuration                                 : 1h 33mn\nOverall bit rate mode                    : Constant\nOverall bit rate                         : 1 634 Kbps\nMovie name                               : LADYINCEMENT\nGenre                                    : Mystery\nWriting application                      : Lavf54.6.100\n\nVideo\nID                                       : 1\nFormat                                   : MPEG-4 Visual\nFormat settings, BVOP                    : No\nFormat settings, QPel                    : No\nFormat settings, GMC                     : No warppoints\nFormat settings, Matrix                  : Default (H.263)\nCodec ID                                 : 20\nDuration                                 : 1h 33mn\nBit rate mode                            : Constant\nBit rate                                 : 1 501 Kbps\nWidth                                    : 720 pixels\nHeight                                   : 404 pixels\nDisplay aspect ratio                     : 16:9\nFrame rate mode                          : Constant\nFrame rate                               : 29.970 fps\nColor space                              : YUV\nChroma subsampling                       : 4:2:0\nBit depth                                : 8 bits\nScan type                                : Progressive\nCompression mode                         : Lossy\nBits/(Pixel*Frame)                       : 0.172\nStream size                              : 1 004 MiB (92%)\nWriting library                          : Lavc54.23.100\n\nAudio\nID                                       : 2\nFormat                                   : MPEG Audio\nFormat version                           : Version 1\nFormat profile                           : Layer 3\nCodec ID                                 : 6B\nDuration                                 : 1h 33mn\nBit rate mode                            : Constant\nBit rate                                 : 128 Kbps\nChannel(s)                               : 2 channels\nSampling rate                            : 44.1 KHz\nCompression mode                         : Lossy\nStream size                              : 85.6 MiB (8%)\nWriting library                          : LAME3.99.5","torrent":{"xt":"urn:btih:1c248b3fa584f5c4d45920bcb7faa3b29eb255fd","amp;dn":"Lady+in+Cement%281968%29MP-4%5BDaScubaDude%5D","amp;tr":["udp%3A%2F%2Ftracker.openbittorrent.com%3A80","udp%3A%2F%2Fopen.demonii.com%3A1337","udp%3A%2F%2Ftracker.coppersurfer.tk%3A6969","udp%3A%2F%2Fexodus.desync.com%3A6969"],"infoHash":"1c248b3fa584f5c4d45920bcb7faa3b29eb255fd","infoHashBuffer":{"type":"Buffer","data":[28,36,139,63,165,132,245,196,212,89,32,188,183,250,163,178,158,178,85,253]},"announce":[],"urlList":[]}}